<?xml version="1.0" encoding="UTF-8" standalone="no"?><svg xmlns="http://www.w3.org/2000/svg" xmlns:xlink="http://www.w3.org/1999/xlink" contentStyleType="text/css" height="87px" preserveAspectRatio="none" style="width:379px;height:87px;background:#FFFFFF;" version="1.1" viewBox="0 0 379 87" width="379px" zoomAndPan="magnify"><defs/><g><!--MD5=[4a65e84059005d12693a083370a06717]
entity client--><g id="elem_client"><ellipse cx="232.5" cy="14" fill="#F1F1F1" rx="8" ry="8" style="stroke:#181818;stroke-width:0.5;"/><path d="M232.5,22 L232.5,49 M219.5,30 L245.5,30 M232.5,49 L219.5,64 M232.5,49 L245.5,64 " fill="none" style="stroke:#181818;stroke-width:0.5;"/><text fill="#000000" font-family="sans-serif" font-size="14" lengthAdjust="spacing" textLength="37" x="214" y="79.0352">client</text></g><!--MD5=[4541fb81c80c07473fe4b07432ef0971]
entity app--><g id="elem_app"><polygon fill="#F1F1F1" points="112.5,30.5,122.5,20.5,178.5,20.5,178.5,56.9883,168.5,66.9883,112.5,66.9883,112.5,30.5" style="stroke:#181818;stroke-width:0.5;"/><line style="stroke:#181818;stroke-width:0.5;" x1="168.5" x2="178.5" y1="30.5" y2="20.5"/><line style="stroke:#181818;stroke-width:0.5;" x1="112.5" x2="168.5" y1="30.5" y2="30.5"/><line style="stroke:#181818;stroke-width:0.5;" x1="168.5" x2="168.5" y1="30.5" y2="66.9883"/><text fill="#000000" font-family="sans-serif" font-size="14" lengthAdjust="spacing" textLength="26" x="127.5" y="54.0352">app</text></g><!--MD5=[1b38d24276ac300d5891813f7c1b81b0]
entity car--><g id="elem_car"><polygon fill="#F1F1F1" points="16,30.5,26,20.5,77,20.5,77,56.9883,67,66.9883,16,66.9883,16,30.5" style="stroke:#181818;stroke-width:0.5;"/><line style="stroke:#181818;stroke-width:0.5;" x1="67" x2="77" y1="30.5" y2="20.5"/><line style="stroke:#181818;stroke-width:0.5;" x1="16" x2="67" y1="30.5" y2="30.5"/><line style="stroke:#181818;stroke-width:0.5;" x1="67" x2="67" y1="30.5" y2="66.9883"/><text fill="#000000" font-family="sans-serif" font-size="14" lengthAdjust="spacing" textLength="21" x="31" y="54.0352">car</text></g><!--MD5=[49e38d7785caaedd44e8aacba64c8ad1]
entity tshirt--><g id="elem_tshirt"><polygon fill="#F1F1F1" points="286.5,30.5,296.5,20.5,362.5,20.5,362.5,56.9883,352.5,66.9883,286.5,66.9883,286.5,30.5" style="stroke:#181818;stroke-width:0.5;"/><line style="stroke:#181818;stroke-width:0.5;" x1="352.5" x2="362.5" y1="30.5" y2="20.5"/><line style="stroke:#181818;stroke-width:0.5;" x1="286.5" x2="352.5" y1="30.5" y2="30.5"/><line style="stroke:#181818;stroke-width:0.5;" x1="352.5" x2="352.5" y1="30.5" y2="66.9883"/><text fill="#000000" font-family="sans-serif" font-size="14" lengthAdjust="spacing" textLength="36" x="301.5" y="54.0352">tshirt</text></g><!--MD5=[ca6127d2c2340ea784bf2f5715a0e7fb]
link car to app--><g id="link_car_app"><path d="M77.05,43.5 C87.07,43.5 97.09,43.5 107.11,43.5 " fill="none" id="car-to-app" style="stroke:#181818;stroke-width:1.0;"/><polygon fill="#181818" points="112.34,43.5,103.34,39.5,107.34,43.5,103.34,47.5,112.34,43.5" style="stroke:#181818;stroke-width:1.0;"/></g><!--MD5=[9cecf95ca18500caa5a398892473e215]
link app to client--><g id="link_app_client"><path d="M178.8,43.5 C188.69,43.5 198.57,43.5 208.45,43.5 " fill="none" id="app-to-client" style="stroke:#181818;stroke-width:1.0;"/><polygon fill="#181818" points="213.62,43.5,204.62,39.5,208.62,43.5,204.62,47.5,213.62,43.5" style="stroke:#181818;stroke-width:1.0;"/></g><!--MD5=[8cd7f1bb76f916277802e9876bcac022]
link client to tshirt--><g id="link_client_tshirt"><path d="M251.19,43.5 C261.19,43.5 271.18,43.5 281.18,43.5 " fill="none" id="client-to-tshirt" style="stroke:#181818;stroke-width:1.0;"/><polygon fill="#181818" points="286.41,43.5,277.41,39.5,281.41,43.5,277.41,47.5,286.41,43.5" style="stroke:#181818;stroke-width:1.0;"/></g><!--MD5=[5e5ee06cf6ad683b7f4cd5a25f10807d]
@startuml
actor client
node app
node car
node tshirt

car -> app
app -> client
client -> tshirt
@enduml

PlantUML version 1.2022.5(Sat Apr 30 12:55:52 CEST 2022)
(GPL source distribution)
Java Runtime: Java(TM) SE Runtime Environment
JVM: Java HotSpot(TM) 64-Bit Server VM
Default Encoding: UTF-8
Language: en
Country: US
--></g></svg>